HIERARCHY
ROOT Hips
{
	OFFSET -0.001795 -0.223333 0.028219
	CHANNELS 6 Xposition Yposition Zposition Zrotation Yrotation Xrotation 
	JOINT LeftUpLeg
	{
		OFFSET 0.069520 -0.091406 -0.006815
		CHANNELS 3 Zrotation Yrotation Xrotation
		JOINT LeftLeg
		{
			OFFSET 0.034277 -0.375199 -0.004496
			CHANNELS 3 Zrotation Yrotation Xrotation
			JOINT LeftFoot
			{
				OFFSET -0.013596 -0.397961 -0.043693
				CHANNELS 3 Zrotation Yrotation Xrotation
				JOINT LeftToe
				{
					OFFSET 0.026358 -0.055791 0.119288
					CHANNELS 3 Zrotation Yrotation Xrotation
					End Site
					{
						OFFSET 0.000000 0.000000 0.000000
					}
				}
			}
		}
	}
	JOINT RightUpLeg
	{
		OFFSET -0.067670 -0.090522 -0.004320
		CHANNELS 3 Zrotation Yrotation Xrotation
		JOINT RightLeg
		{
			OFFSET -0.038290 -0.382569 -0.008850
			CHANNELS 3 Zrotation Yrotation Xrotation
			JOINT RightFoot
			{
				OFFSET 0.015774 -0.398415 -0.042312
				CHANNELS 3 Zrotation Yrotation Xrotation
				JOINT RightToe
				{
					OFFSET -0.025372 -0.048144 0.123348
					CHANNELS 3 Zrotation Yrotation Xrotation
					End Site
					{
						OFFSET 0.000000 0.000000 0.000000
					}
				}
			}
		}
	}
	JOINT Spine
	{
		OFFSET -0.002533 0.108963 -0.026696
		CHANNELS 3 Zrotation Yrotation Xrotation
		JOINT Spine1
		{
			OFFSET 0.005487 0.135180 0.001092
			CHANNELS 3 Zrotation Yrotation Xrotation
			JOINT Spine2
			{
				OFFSET 0.001457 0.052922 0.025425
				CHANNELS 3 Zrotation Yrotation Xrotation
				JOINT Neck
				{
					OFFSET -0.002778 0.213870 -0.042857
					CHANNELS 3 Zrotation Yrotation Xrotation
					JOINT Head
					{
						OFFSET 0.005152 0.064970 0.051349
						CHANNELS 3 Zrotation Yrotation Xrotation
						End Site
						{
							OFFSET 0.000000 0.000000 0.000000
						}
					}
				}
				JOINT LeftShoulder
				{
					OFFSET 0.078845 0.121749 -0.034090
					CHANNELS 3 Zrotation Yrotation Xrotation
					JOINT LeftArm
					{
						OFFSET 0.090977 0.030469 -0.008868
						CHANNELS 3 Zrotation Yrotation Xrotation
						JOINT LeftForeArm
						{
							OFFSET 0.259612 -0.012772 -0.027456
							CHANNELS 3 Zrotation Yrotation Xrotation
							JOINT LeftHand
							{
								OFFSET 0.249234 0.008986 -0.001171
								CHANNELS 3 Zrotation Yrotation Xrotation
								End Site
								{
									OFFSET 0.000000 0.000000 0.000000
								}
							}
						}
					}
				}
				JOINT RightShoulder
				{
					OFFSET -0.081759 0.118833 -0.038615
					CHANNELS 3 Zrotation Yrotation Xrotation
					JOINT RightArm
					{
						OFFSET -0.096012 0.032551 -0.009143
						CHANNELS 3 Zrotation Yrotation Xrotation
						JOINT RightForeArm
						{
							OFFSET -0.253742 -0.013329 -0.021401
							CHANNELS 3 Zrotation Yrotation Xrotation
							JOINT RightHand
							{
								OFFSET -0.255298 0.007772 -0.005559
								CHANNELS 3 Zrotation Yrotation Xrotation
								End Site
								{
									OFFSET 0.000000 0.000000 0.000000
								}
							}
						}
					}
				}
			}
		}
	}
}
MOTION
Frames: 5
Frame Time: 0.050000
0.045402 0.802865 -0.071485 -4.332581 -57.802497 15.816311 17.545438 9.853641 -24.871072 10.361257 11.963676 59.968790 3.119296 6.235044 -9.796582 0.000000 0.000000 0.000000 -33.161768 9.951009 -56.427450 33.040302 -2.922586 37.496916 -20.157284 -42.355785 26.419373 0.000000 0.000000 0.000000 4.611407 1.456961 24.809122 6.816752 -2.324730 -8.815046 -6.939309 -2.104409 -1.219248 9.514266 -4.439429 -31.972007 0.000000 0.000000 0.000000 -8.382977 -19.826141 13.000624 -25.043646 -44.808321 6.234628 83.652689 -59.050794 -41.141980 0.000000 0.000000 0.000000 8.640655 18.903223 1.989726 26.597298 15.755768 2.285794 -106.454487 73.503266 -101.337068 0.000000 0.000000 0.000000 
0.040501 0.786326 -0.072093 -6.687474 -60.838530 18.332009 18.521390 11.128364 -24.690138 15.142463 11.347385 64.794808 1.774505 2.873001 -6.563374 0.000000 0.000000 0.000000 -35.593220 10.912581 -59.390900 37.979187 -3.826816 36.411456 -21.281836 -44.893232 24.853054 0.000000 0.000000 0.000000 6.585848 1.812772 27.331937 8.540389 -2.600049 -11.243633 -6.407376 -7.975683 0.152524 7.550681 -4.031100 -34.288475 0.000000 0.000000 0.000000 -1.639100 -23.807382 13.204481 -13.740068 -48.863439 4.593411 75.861780 -36.208588 -18.352699 0.000000 0.000000 0.000000 5.747639 21.314882 2.248218 25.999514 19.672439 2.883869 -107.464029 67.797182 -101.725479 0.000000 0.000000 0.000000 
0.032595 0.773535 -0.071856 -8.775150 -63.868312 20.704460 19.354890 11.344445 -22.519846 16.808371 12.269206 66.219476 1.487670 2.131240 -8.102470 0.000000 0.000000 0.000000 -36.398610 12.063047 -61.713948 40.246523 -3.941002 36.363432 -21.065373 -46.958324 21.074221 0.000000 0.000000 0.000000 7.291688 2.396697 29.183913 9.110325 -2.552097 -13.228406 -5.248958 -10.987101 1.628684 5.493238 -3.752948 -34.867943 0.000000 0.000000 0.000000 4.079022 -25.596238 11.795266 -4.934509 -49.100315 2.795700 76.601289 -22.897411 -8.460602 0.000000 0.000000 0.000000 4.458213 22.232213 2.142732 25.240983 21.498905 2.935898 -114.053804 63.290151 -107.577604 0.000000 0.000000 0.000000 
0.023542 0.762912 -0.070860 -12.762110 -67.388352 25.286768 20.102648 12.186545 -21.436810 20.104383 12.438858 68.754762 0.475121 0.321368 -4.098407 0.000000 0.000000 0.000000 -37.373718 13.578908 -64.772458 42.674367 -3.976477 35.882990 -20.650112 -48.822257 18.039107 0.000000 0.000000 0.000000 8.550582 2.985977 30.959883 9.073078 -2.395003 -14.415530 -4.783317 -13.246587 2.074432 4.779614 -3.580945 -36.411694 0.000000 0.000000 0.000000 8.751816 -26.942091 10.489018 2.372038 -46.314510 1.107091 79.018899 -12.848750 -0.416526 0.000000 0.000000 0.000000 2.941258 23.587955 2.356154 25.631664 23.357065 3.103214 -117.596222 59.251129 -110.916553 0.000000 0.000000 0.000000 
0.013924 0.755127 -0.069551 -15.152707 -69.126891 28.815909 19.975736 11.937741 -20.337880 20.712078 13.370536 69.022294 0.706365 0.932586 -3.612628 0.000000 0.000000 0.000000 -39.396089 14.078929 -66.821556 45.309579 -4.202585 34.209595 -20.685169 -50.971121 15.637767 0.000000 0.000000 0.000000 9.486986 3.346047 32.117354 9.542038 -2.291526 -15.597565 -4.543021 -15.265887 2.674505 4.364624 -3.435619 -37.710670 0.000000 0.000000 0.000000 11.409549 -26.982525 9.501409 7.695890 -44.180706 0.095431 80.806335 -7.333895 4.625243 0.000000 0.000000 0.000000 2.095704 24.274716 2.392292 24.411877 24.765317 2.881663 -117.003127 56.332057 -108.483076 0.000000 0.000000 0.000000 
